<?xml version="1.0" encoding="UTF-8" standalone="no"?>
<!-- Created with Inkscape (http://www.inkscape.org/) -->

<svg
   xmlns:dc="http://purl.org/dc/elements/1.1/"
   xmlns:cc="http://creativecommons.org/ns#"
   xmlns:rdf="http://www.w3.org/1999/02/22-rdf-syntax-ns#"
   xmlns:svg="http://www.w3.org/2000/svg"
   xmlns="http://www.w3.org/2000/svg"
   xmlns:xlink="http://www.w3.org/1999/xlink"
   xmlns:sodipodi="http://sodipodi.sourceforge.net/DTD/sodipodi-0.dtd"
   xmlns:inkscape="http://www.inkscape.org/namespaces/inkscape"
   width="1280mm"
   height="720mm"
   viewBox="0 0 1280 720"
   version="1.1"
   id="svg8"
   inkscape:version="0.92.3 (2405546, 2018-03-11)"
   sodipodi:docname="shop.svg">
  <defs
     id="defs2">
    <style
       id="style4760">.cls-1{fill:#fff;}</style>
    <style
       id="style4760-7">.cls-1{fill:#fff;}</style>
    <style
       id="style4825">.cls-1{fill:#f20732;}.cls-2{isolation:isolate;}</style>
  </defs>
  <sodipodi:namedview
     id="base"
     pagecolor="#ffffff"
     bordercolor="#666666"
     borderopacity="1.0"
     inkscape:pageopacity="0.0"
     inkscape:pageshadow="2"
     inkscape:zoom="0.12374369"
     inkscape:cx="1866.7"
     inkscape:cy="-1376.1109"
     inkscape:document-units="mm"
     inkscape:current-layer="layer1"
     showgrid="false"
     inkscape:snap-page="true"
     inkscape:window-width="1366"
     inkscape:window-height="705"
     inkscape:window-x="-8"
     inkscape:window-y="-8"
     inkscape:window-maximized="1" />
  <metadata
     id="metadata5">
    <rdf:RDF>
      <cc:Work
         rdf:about="">
        <dc:format>image/svg+xml</dc:format>
        <dc:type
           rdf:resource="http://purl.org/dc/dcmitype/StillImage" />
        <dc:title />
      </cc:Work>
    </rdf:RDF>
  </metadata>
  <g
     inkscape:label="Layer 1"
     inkscape:groupmode="layer"
     id="layer1"
     transform="translate(0,423)">
    <image
       sodipodi:absref="C:\Users\user\Pictures\designs\brainy\shop100\shop100#4\exports\dist-2\Asset 13.png"
       y="262.0799"
       x="1540.7028"
       id="image4757"
       xlink:href="file:///C:/Users/user/Pictures/designs/brainy/shop100/shop100%234/exports/dist-2/Asset%2013.png"
       style="image-rendering:optimizeQuality"
       preserveAspectRatio="none"
       height="309.65875"
       width="311.23862" />
    <g
       id="g4811"
       inkscape:export-xdpi="27.763613"
       inkscape:export-ydpi="27.763613">
      <rect
         y="-423.00003"
         x="0"
         height="720"
         width="1280"
         id="rect4747"
         style="opacity:1;fill:#f20732;fill-opacity:1;stroke:none;stroke-width:1.32291663;stroke-linecap:butt;stroke-linejoin:round;stroke-miterlimit:4;stroke-dasharray:none;stroke-opacity:0.70881222;paint-order:fill markers stroke" />
      <g
         transform="matrix(7.7007269,0,0,7.7007269,451.97832,-250.77756)"
         id="Layer_2"
         data-name="Layer 2">
        <g
           id="Layer_1-2"
           data-name="Layer 1">
          <path
             style="fill:#ffffff"
             inkscape:connector-curvature="0"
             class="cls-1"
             d="M 13.37,1.61 C 7.27,14 2.42,25.77 0,36.06 A 0.38,0.38 0 0 0 0,36.4 20.6,20.6 0 0 0 6.17,46.31 0.38,0.38 0 0 0 6.86,46.19 196.27,196.27 0 0 1 16.14,4.43 0.38,0.38 0 0 1 16.27,4.22 L 17.9,2.9 A 0.38,0.38 0 0 0 17.74,2.23 L 13.8,1.37 a 0.38,0.38 0 0 0 -0.43,0.24 z"
             id="path4766" />
          <path
             style="fill:#ffffff"
             inkscape:connector-curvature="0"
             class="cls-1"
             d="M 18.59,3.58 20,2.41 A 0.38,0.38 0 0 0 19.85,1.75 L 18.12,1.3 a 0.38,0.38 0 0 1 0.1,-0.75 88.79,88.79 0 0 1 22.13,0.27 0.38,0.38 0 0 1 0.25,0.67 v 0 a 0.38,0.38 0 0 0 0.14,0.65 l 1.77,0.55 A 0.38,0.38 0 0 1 42.41,3.43 71,71 0 0 0 18.85,4.26 0.38,0.38 0 0 1 18.59,3.58 Z"
             id="path4768" />
          <path
             style="fill:#ffffff"
             inkscape:connector-curvature="0"
             class="cls-1"
             d="m 30.74,21.14 c -1.15,0.17 -2.28,2.3 -2.57,4.6 -0.18,1.44 0.27,2.23 1,2.06 1.26,-0.29 2.38,-2.36 2.58,-4.6 0.15,-1.35 -0.3,-2.2 -1.01,-2.06 z"
             id="path4770" />
          <path
             style="fill:#ffffff"
             inkscape:connector-curvature="0"
             class="cls-1"
             d="m 37.49,20.16 c -1.15,0.17 -2.1,2.07 -2.2,4.14 -0.06,1.28 0.46,2 1.22,1.8 1.27,-0.3 2.22,-2.16 2.22,-4.13 -0.01,-1.19 -0.53,-1.91 -1.24,-1.81 z"
             id="path4772" />
          <path
             style="fill:#ffffff"
             inkscape:connector-curvature="0"
             class="cls-1"
             d="M 48.87,34.21 C 48.39,23.33 47.49,13.21 45.64,4.8 A 0.38,0.38 0 0 0 45.25,4.46 C 37.17,3.3 27.71,3.79 17.57,5.38 a 0.38,0.38 0 0 0 -0.36,0.3 c -4.07,12.73 -7,27.2 -9.39,42.64 a 0.38,0.38 0 0 0 0.5,0.44 c 16.16,-3.92 30.2,-8.45 40.3,-14.15 a 0.38,0.38 0 0 0 0.25,-0.4 z M 29.87,10.76 30,9.49 a 0.78,0.78 0 0 1 0.65,-0.56 c 0.23,0 0.58,0.23 0.56,0.47 l -0.15,1.45 c -0.12,1.16 0,1.81 0.63,2.38 A 2.06,2.06 0 0 0 33.58,13.66 3.4,3.4 0 0 0 36.45,10 L 36.34,8.66 c 0,-0.24 0.33,-0.44 0.57,-0.46 0.24,-0.02 0.62,0.16 0.64,0.39 l 0.11,1.52 a 4.6,4.6 0 0 1 -3.71,4.72 5.29,5.29 0 0 1 -0.91,0.08 3.27,3.27 0 0 1 -2.08,-0.71 4,4 0 0 1 -1.1,-3.44 z m -7.39,21.1 -1.34,0.34 c -0.47,0.12 -0.65,-0.15 -0.46,-0.78 L 23.37,22 21.92,22.22 c -0.43,0.06 -0.58,-0.24 -0.37,-0.86 l 0.32,-1 c 0.19,-0.61 0.56,-1 1,-1 L 26.08,19 c 0.43,0 0.57,0.24 0.4,0.82 q -1.45,5.4 -3,10.9 a 1.52,1.52 0 0 1 -1.01,1.14 z M 36,28.53 a 2.58,2.58 0 0 1 -2.9,-0.7 11.22,11.22 0 0 0 1,-3.41 9.39,9.39 0 0 1 -1.31,2.86 7.73,7.73 0 0 1 -4.3,3.25 c -2.29,0.59 -3.54,-1 -3.09,-4 0.65,-4.26 3.21,-7.69 5.92,-8 a 2.44,2.44 0 0 1 2.52,1.22 12.24,12.24 0 0 0 -1,3.4 c 0.8,-2.92 2.72,-5.07 5,-5.31 2,-0.21 3.39,1.17 3.49,3.48 A 7.26,7.26 0 0 1 36,28.53 Z M 32.23,7.07 a 0.68,0.68 0 1 1 -0.68,-0.68 0.68,0.68 0 0 1 0.68,0.68 z m 4.08,-0.48 a 0.68,0.68 0 1 1 -0.68,-0.68 0.68,0.68 0 0 1 0.68,0.68 z"
             id="path4774" />
        </g>
      </g>
    </g>
    <image
       sodipodi:absref="C:\Users\user\Pictures\designs\brainy\shop100\shop100#4\exports\dist-2\Asset 12.png"
       y="-313.3808"
       x="1474.2933"
       id="image4800"
       xlink:href="file:///C:/Users/user/Pictures/designs/brainy/shop100/shop100%234/exports/dist-2/Asset%2012.png"
       style="image-rendering:optimizeQuality"
       preserveAspectRatio="none"
       height="309.65875"
       width="309.65875" />
    <rect
       y="372.26187"
       x="0"
       height="720"
       width="1280"
       id="rect4756"
       style="opacity:1;fill:#f20732;fill-opacity:1;stroke:none;stroke-width:1.32291663;stroke-linecap:butt;stroke-linejoin:round;stroke-miterlimit:4;stroke-dasharray:none;stroke-opacity:0.70881222;paint-order:fill markers stroke"
       inkscape:export-xdpi="27.106562"
       inkscape:export-ydpi="27.106562" />
    <g
       transform="matrix(4.478398,0,0,4.478398,530.65501,623.05886)"
       id="g4771"
       data-name="Layer 2"
       inkscape:export-xdpi="27.106562"
       inkscape:export-ydpi="27.106562">
      <g
         id="g4769"
         data-name="Layer 1">
        <path
           style="fill:#ffffff"
           inkscape:connector-curvature="0"
           class="cls-1"
           d="M 13.37,1.61 C 7.27,14 2.42,25.77 0,36.06 A 0.38,0.38 0 0 0 0,36.4 20.6,20.6 0 0 0 6.17,46.31 0.38,0.38 0 0 0 6.86,46.19 196.27,196.27 0 0 1 16.14,4.43 0.38,0.38 0 0 1 16.27,4.22 L 17.9,2.9 A 0.38,0.38 0 0 0 17.74,2.23 L 13.8,1.37 a 0.38,0.38 0 0 0 -0.43,0.24 z"
           id="path4758" />
        <path
           style="fill:#ffffff"
           inkscape:connector-curvature="0"
           class="cls-1"
           d="M 18.59,3.58 20,2.41 A 0.38,0.38 0 0 0 19.85,1.75 L 18.12,1.3 a 0.38,0.38 0 0 1 0.1,-0.75 88.79,88.79 0 0 1 22.13,0.27 0.38,0.38 0 0 1 0.25,0.67 v 0 a 0.38,0.38 0 0 0 0.14,0.65 l 1.77,0.55 A 0.38,0.38 0 0 1 42.41,3.43 71,71 0 0 0 18.85,4.26 0.38,0.38 0 0 1 18.59,3.58 Z"
           id="path4760" />
        <path
           style="fill:#ffffff"
           inkscape:connector-curvature="0"
           class="cls-1"
           d="m 30.74,21.14 c -1.15,0.17 -2.28,2.3 -2.57,4.6 -0.18,1.44 0.27,2.23 1,2.06 1.26,-0.29 2.38,-2.36 2.58,-4.6 0.15,-1.35 -0.3,-2.2 -1.01,-2.06 z"
           id="path4762" />
        <path
           style="fill:#ffffff"
           inkscape:connector-curvature="0"
           class="cls-1"
           d="m 37.49,20.16 c -1.15,0.17 -2.1,2.07 -2.2,4.14 -0.06,1.28 0.46,2 1.22,1.8 1.27,-0.3 2.22,-2.16 2.22,-4.13 -0.01,-1.19 -0.53,-1.91 -1.24,-1.81 z"
           id="path4764" />
        <path
           style="fill:#ffffff"
           inkscape:connector-curvature="0"
           class="cls-1"
           d="M 48.87,34.21 C 48.39,23.33 47.49,13.21 45.64,4.8 A 0.38,0.38 0 0 0 45.25,4.46 C 37.17,3.3 27.71,3.79 17.57,5.38 a 0.38,0.38 0 0 0 -0.36,0.3 c -4.07,12.73 -7,27.2 -9.39,42.64 a 0.38,0.38 0 0 0 0.5,0.44 c 16.16,-3.92 30.2,-8.45 40.3,-14.15 a 0.38,0.38 0 0 0 0.25,-0.4 z M 29.87,10.76 30,9.49 a 0.78,0.78 0 0 1 0.65,-0.56 c 0.23,0 0.58,0.23 0.56,0.47 l -0.15,1.45 c -0.12,1.16 0,1.81 0.63,2.38 A 2.06,2.06 0 0 0 33.58,13.66 3.4,3.4 0 0 0 36.45,10 L 36.34,8.66 c 0,-0.24 0.33,-0.44 0.57,-0.46 0.24,-0.02 0.62,0.16 0.64,0.39 l 0.11,1.52 a 4.6,4.6 0 0 1 -3.71,4.72 5.29,5.29 0 0 1 -0.91,0.08 3.27,3.27 0 0 1 -2.08,-0.71 4,4 0 0 1 -1.1,-3.44 z m -7.39,21.1 -1.34,0.34 c -0.47,0.12 -0.65,-0.15 -0.46,-0.78 L 23.37,22 21.92,22.22 c -0.43,0.06 -0.58,-0.24 -0.37,-0.86 l 0.32,-1 c 0.19,-0.61 0.56,-1 1,-1 L 26.08,19 c 0.43,0 0.57,0.24 0.4,0.82 q -1.45,5.4 -3,10.9 a 1.52,1.52 0 0 1 -1.01,1.14 z M 36,28.53 a 2.58,2.58 0 0 1 -2.9,-0.7 11.22,11.22 0 0 0 1,-3.41 9.39,9.39 0 0 1 -1.31,2.86 7.73,7.73 0 0 1 -4.3,3.25 c -2.29,0.59 -3.54,-1 -3.09,-4 0.65,-4.26 3.21,-7.69 5.92,-8 a 2.44,2.44 0 0 1 2.52,1.22 12.24,12.24 0 0 0 -1,3.4 c 0.8,-2.92 2.72,-5.07 5,-5.31 2,-0.21 3.39,1.17 3.49,3.48 A 7.26,7.26 0 0 1 36,28.53 Z M 32.23,7.07 a 0.68,0.68 0 1 1 -0.68,-0.68 0.68,0.68 0 0 1 0.68,0.68 z m 4.08,-0.48 a 0.68,0.68 0 1 1 -0.68,-0.68 0.68,0.68 0 0 1 0.68,0.68 z"
           id="path4767" />
      </g>
    </g>
    <g
       data-name="Layer 2"
       id="Layer_2-0"
       transform="matrix(4.39742,0,0,4.39742,417.29103,902.8668)"
       style="fill:#ffffff"
       inkscape:export-xdpi="27.106562"
       inkscape:export-ydpi="27.106562">
      <g
         data-name="Layer 1"
         id="Layer_1-2-8"
         style="fill:#ffffff">
        <path
           id="path4831"
           transform="translate(0,-0.11)"
           d="M 69.84,0"
           class="cls-1"
           inkscape:connector-curvature="0"
           style="fill:#ffffff" />
        <path
           transform="translate(0,-0.11)"
           d="M 72,0.68 H 65.76 A 1.43,1.43 0 0 0 64.27,2 L 64,3.26 a 1,1 0 0 0 1,1.28 h 2.71 l -1.85,12.65 a 1,1 0 0 0 1.06,1.28 h 2.26 A 1.44,1.44 0 0 0 70.7,17.19 L 73.07,2 C 73.23,1.13 72.86,0.68 72,0.68 Z"
           class="cls-1"
           id="path935"
           inkscape:connector-curvature="0"
           style="fill:#ffffff" />
        <path
           transform="translate(0,-0.11)"
           d="M 94.86,0.86 C 90.5,0.86 87,4 86,8.6 A 14.5,14.5 0 0 1 87.35,3.3 6,6 0 0 0 82.25,0.86 C 77,0.86 73,5.46 73,11.63 c 0,4.31 2.58,7.16 6.44,7.16 a 8.61,8.61 0 0 0 6.93,-3.49 11.09,11.09 0 0 0 2,-4.25 14.55,14.55 0 0 1 -1.37,5.29 6,6 0 0 0 5.06,2.45 c 5.29,0 9.23,-4.6 9.23,-10.78 0,-4.33 -2.55,-7.15 -6.43,-7.15 z m -0.66,4 c 1.33,0 2.31,1.41 2.31,3.54 0,3.51 -1.62,6.44 -3.8,6.44 -1.3,0 -2.29,-1.38 -2.29,-3.54 C 90.41,7.8 92,4.82 94.19,4.82 Z m -12.61,0 c 1.33,0 2.31,1.41 2.31,3.54 0,3.51 -1.62,6.44 -3.8,6.44 -1.3,0 -2.29,-1.38 -2.29,-3.54 -0.01,-3.5 1.62,-6.48 3.77,-6.48 z"
           class="cls-1"
           id="path937"
           inkscape:connector-curvature="0"
           style="fill:#ffffff" />
        <g
           class="cls-2"
           id="text941"
           style="isolation:isolate;fill:#ffffff">
          <g
             id="g4843"
             class="cls-2"
             style="isolation:isolate;fill:#ffffff">
            <path
               id="path4835"
               transform="translate(0,-0.11)"
               d="m 0.35,17.52 c -0.49,-0.56 -0.52,-1.06 0.27,-1.78 l 0.8,-0.77 a 1.17,1.17 0 0 1 1.81,-0.13 4.67,4.67 0 0 0 3,1.17 c 0.8,0 1.31,-0.29 1.42,-0.8 C 7.76,14.7 7.06,14.28 6.27,14 4.06,13.28 1.58,12.43 2.17,9.62 2.71,7.04 5.17,5.42 8.5,5.42 a 7,7 0 0 1 4.58,1.46 c 0.5,0.53 0.51,1 -0.3,1.81 l -0.7,0.69 A 1.26,1.26 0 0 1 10.34,9.59 3.67,3.67 0 0 0 7.86,8.7 c -0.74,0 -1.23,0.29 -1.32,0.72 -0.14,0.66 1,0.88 2.58,1.49 2,0.85 3.39,1.94 2.91,4.25 -0.56,2.68 -3.18,4.28 -6.5,4.28 A 7.21,7.21 0 0 1 0.35,17.52 Z"
               class="cls-1"
               inkscape:connector-curvature="0"
               style="fill:#ffffff" />
            <path
               id="path4837"
               transform="translate(0,-0.11)"
               d="m 28.69,11.22 -1.39,6.62 a 1.41,1.41 0 0 1 -1.48,1.22 h -2.18 c -0.77,0 -1.1,-0.45 -0.94,-1.22 L 24,11.57 C 24.28,10.24 23.67,9.34 22.34,9.34 a 2.64,2.64 0 0 0 -2.59,2.23 l -1.31,6.27 A 1.43,1.43 0 0 1 17,19.06 h -2.18 c -0.77,0 -1.1,-0.45 -0.94,-1.22 l 3.37,-16.1 a 1.5,1.5 0 0 1 1.46,-1.22 l 2.21,-0.4 c 0.82,-0.11 1.16,0.43 1,1.22 l -1.1,5.23 a 6.15,6.15 0 0 1 3.56,-1.14 c 3.24,0 5.05,2.26 4.31,5.79 z"
               class="cls-1"
               inkscape:connector-curvature="0"
               style="fill:#ffffff" />
            <path
               id="path4839"
               transform="translate(0,-0.11)"
               d="m 30.61,12.42 a 9,9 0 0 1 8.88,-7 c 4.3,0 6.79,3 5.95,7 a 9,9 0 0 1 -8.88,7 c -4.3,-0.01 -6.79,-2.99 -5.95,-7 z m 10.28,0 C 41.26,10.67 40.33,9.37 38.66,9.37 a 3.74,3.74 0 0 0 -3.54,3.05 c -0.37,1.75 0.58,3.05 2.26,3.05 a 3.72,3.72 0 0 0 3.51,-3.05 z"
               class="cls-1"
               inkscape:connector-curvature="0"
               style="fill:#ffffff" />
            <path
               id="path4841"
               transform="translate(0,-0.11)"
               d="m 62.39,12.42 a 8.65,8.65 0 0 1 -8.1,7 5.25,5.25 0 0 1 -3.17,-1 l -0.93,4.44 a 1.41,1.41 0 0 1 -1.45,1.22 h -2.2 c -0.77,0 -1.1,-0.45 -0.94,-1.22 l 3.36,-16 a 1.41,1.41 0 0 1 1.45,-1.22 h 1.3 c 0.77,0 1.1,0.45 0.94,1.22 v 0.19 a 7.9,7.9 0 0 1 4.62,-1.62 c 3.73,0 5.94,3.06 5.12,6.99 z m -4.54,0 C 58.21,10.69 57.32,9.37 55.62,9.37 a 3.67,3.67 0 0 0 -3.48,3.05 c -0.39,1.86 0.61,3.05 2.2,3.05 a 3.72,3.72 0 0 0 3.5,-3.05 z"
               class="cls-1"
               inkscape:connector-curvature="0"
               style="fill:#ffffff" />
          </g>
        </g>
      </g>
    </g>
  </g>
</svg>
